<?xml version="1.0" standalone="no"?>
<!DOCTYPE svg PUBLIC "-//W3C//DTD SVG 20010904//EN"
 "http://www.w3.org/TR/2001/REC-SVG-20010904/DTD/svg10.dtd">
<svg version="1.0" xmlns="http://www.w3.org/2000/svg"
 width="1030.000000pt" height="541.000000pt" viewBox="0 0 1030.000000 541.000000"
 preserveAspectRatio="xMidYMid meet">

<g transform="translate(0.000000,541.000000) scale(0.100000,-0.100000)"
fill="#000000" stroke="none">
<path d="M5305 4570 c-28 -5 -84 -21 -125 -35 -41 -15 -84 -29 -95 -32 -45
-13 -221 -138 -289 -206 -225 -226 -364 -591 -406 -1069 -7 -78 -7 -188 0
-335 21 -451 60 -680 192 -1128 27 -93 166 -404 239 -535 101 -180 310 -416
457 -514 38 -25 72 -46 76 -46 3 0 29 -11 58 -24 83 -38 136 -49 234 -48 342
1 624 240 868 735 75 151 97 204 162 388 59 166 129 402 144 489 61 337 70
417 71 642 2 259 -42 521 -116 693 -7 17 -16 41 -20 55 -7 23 -81 165 -143
272 -15 25 -37 57 -48 70 -12 13 -27 34 -34 46 -21 42 -181 211 -264 281 -168
141 -323 227 -497 277 -82 24 -115 28 -254 30 -88 2 -183 -1 -210 -6z m311
-230 c151 -31 305 -112 451 -238 101 -87 259 -302 316 -432 55 -123 77 -181
77 -198 0 -10 3 -22 7 -26 19 -19 49 -162 73 -351 34 -264 25 -564 -26 -812
-33 -165 -85 -361 -113 -428 -5 -11 -24 -56 -42 -100 -96 -232 -249 -447 -388
-549 -152 -111 -309 -147 -466 -106 -98 25 -159 56 -245 125 -144 115 -297
318 -381 505 -11 25 -29 63 -41 85 -11 22 -31 69 -43 105 -13 36 -32 90 -43
120 -51 145 -92 312 -121 490 -6 36 -16 94 -21 130 -17 105 -25 552 -11 650
13 96 36 223 52 290 22 89 80 242 110 290 5 8 12 22 16 30 24 54 105 158 171
221 124 119 236 178 382 204 108 19 175 18 286 -5z"/>
<path d="M5055 3981 c-171 -100 -327 -497 -365 -931 -17 -199 -9 -347 29 -545
69 -360 345 -833 601 -1030 71 -54 90 -64 146 -74 86 -16 137 11 213 114 37
49 141 253 141 275 0 6 16 48 36 93 20 45 41 93 46 107 6 14 16 39 23 55 7 17
22 53 33 81 22 53 109 226 166 329 18 33 50 92 71 130 20 39 43 77 51 86 8 8
14 20 14 25 0 5 12 32 25 59 32 64 34 136 5 165 -36 36 -147 21 -264 -36 -101
-50 -125 -93 -147 -274 -14 -115 -43 -182 -105 -245 -71 -70 -138 -105 -203
-105 -51 0 -57 3 -97 44 -93 97 -146 343 -148 691 -1 212 12 272 75 340 37 40
38 40 109 40 69 0 73 -1 104 -35 19 -21 39 -59 49 -95 10 -33 25 -85 34 -115
37 -126 93 -170 215 -170 87 1 143 12 212 45 115 54 194 160 177 237 -9 39
-38 88 -53 88 -5 0 -22 8 -36 19 -15 10 -67 40 -117 66 -49 26 -102 56 -117
66 -14 10 -29 19 -32 19 -24 0 -213 141 -505 378 -36 28 -99 70 -142 92 -100
52 -168 55 -244 11z"/>
<path d="M6794 4421 c-54 -25 -118 -100 -134 -156 -16 -57 -7 -136 20 -182 11
-20 44 -63 72 -97 117 -143 196 -318 234 -521 16 -82 19 -147 19 -355 0 -253
-3 -295 -46 -595 -31 -213 -105 -580 -179 -885 -12 -47 -25 -105 -30 -130 -5
-25 -23 -101 -40 -170 -17 -69 -35 -145 -40 -170 -5 -25 -21 -94 -35 -155 -40
-170 -45 -195 -56 -273 -10 -74 -2 -112 24 -112 15 0 161 151 180 188 53 98
87 168 87 178 0 6 7 17 15 24 8 7 15 21 15 31 0 11 8 38 19 62 10 23 31 78 45
122 15 44 31 89 35 100 4 11 16 45 25 75 20 64 71 209 91 260 7 19 25 76 40
125 14 50 32 106 40 125 7 19 36 114 65 210 28 96 56 186 62 200 6 14 14 41
19 60 4 19 15 60 24 90 89 302 163 667 191 947 23 232 7 573 -29 609 -4 4 -7
13 -7 21 0 20 -49 95 -59 89 -5 -3 -12 -67 -16 -143 -8 -163 -36 -409 -65
-583 -12 -69 -25 -150 -30 -180 -5 -30 -16 -88 -25 -127 -8 -40 -22 -108 -31
-150 -24 -113 -100 -433 -130 -543 -14 -52 -34 -126 -44 -165 -30 -119 -51
-185 -75 -238 l-24 -52 5 55 c5 55 10 86 40 230 8 41 19 98 24 125 4 28 22
131 39 230 30 172 47 279 57 355 2 19 6 49 9 65 35 252 51 626 36 822 -21 269
-19 255 -57 379 -28 94 -66 152 -125 191 -35 23 -53 27 -127 30 -68 2 -96 -1
-128 -16z"/>
<path d="M4121 4326 c-39 -99 -52 -147 -115 -426 -44 -199 -65 -380 -76 -665
-12 -327 -6 -400 54 -645 37 -151 51 -198 59 -206 4 -4 7 -17 7 -29 0 -11 4
-25 8 -31 5 -5 21 -43 38 -84 16 -41 41 -97 55 -125 14 -27 45 -85 68 -128 42
-80 49 -115 31 -162 -14 -37 -38 -42 -65 -14 -41 44 -74 122 -126 309 -56 201
-69 227 -91 189 -10 -18 -13 -75 -13 -224 0 -216 13 -318 77 -605 66 -299 134
-517 192 -615 61 -104 96 -122 152 -80 50 38 79 90 109 191 20 73 25 111 26
209 1 178 -8 231 -106 630 -56 229 -79 336 -151 705 -9 47 -20 101 -24 120 -4
19 -13 58 -18 85 -6 28 -27 111 -47 185 -65 246 -77 311 -72 374 3 32 10 63
16 69 28 28 46 -34 91 -312 47 -296 68 -268 74 102 3 160 10 288 20 351 9 55
16 127 16 162 0 107 -33 331 -91 611 -14 69 -40 152 -49 158 -5 3 -27 -42 -49
-99z"/>
<path d="M3704 4263 c-38 -20 -86 -45 -106 -55 -22 -12 -68 -22 -113 -25 -110
-9 -110 -9 -109 -238 3 -268 44 -537 96 -625 20 -34 21 -49 23 -495 3 -461 -7
-946 -20 -1005 l-7 -32 -18 30 c-10 16 -22 32 -27 35 -4 3 -36 -56 -70 -131
-67 -149 -77 -199 -89 -418 -7 -131 7 -228 37 -260 21 -22 25 -22 163 -17 164
7 243 -4 352 -48 83 -32 109 -29 120 17 16 63 -19 541 -46 636 -6 20 -19 47
-30 60 -19 23 -20 23 -50 5 -18 -9 -36 -17 -42 -17 -11 0 -6 840 9 1398 6 250
7 254 28 262 13 5 28 24 34 42 22 62 36 262 36 513 0 268 -11 341 -55 385 -27
27 -37 26 -116 -17z"/>
<path d="M7822 4258 c-32 -40 -81 -258 -137 -608 -49 -307 -167 -931 -195
-1025 -4 -16 -16 -66 -26 -110 -9 -44 -30 -132 -46 -195 -16 -63 -34 -135 -39
-160 -8 -40 -33 -135 -75 -285 -19 -69 -119 -413 -149 -510 -13 -44 -49 -152
-80 -240 -65 -185 -89 -275 -78 -286 5 -5 49 38 99 94 111 125 333 327 359
327 5 0 18 9 29 19 43 40 170 104 227 116 44 8 87 23 122 41 26 15 27 14 27
-10 0 -13 -18 -103 -40 -200 -38 -168 -46 -216 -35 -216 7 0 180 176 220 225
28 34 36 56 54 150 11 61 25 155 32 211 12 99 34 155 56 141 6 -4 12 -55 15
-115 4 -81 10 -117 26 -147 42 -83 128 -96 180 -27 l27 36 -1 175 c-1 158 -4
187 -28 281 -48 184 -47 177 -32 217 55 147 233 944 255 1143 13 117 1 172
-66 315 -72 152 -140 245 -181 245 -36 0 -63 -29 -97 -103 -27 -59 -45 -173
-160 -1007 -20 -146 -41 -292 -46 -325 -5 -33 -19 -116 -30 -185 -11 -69 -24
-154 -30 -190 -23 -155 -81 -456 -90 -464 -5 -6 -10 -21 -11 -35 -1 -15 -4 44
-8 129 -7 180 -16 205 -63 196 -44 -9 -138 -57 -237 -121 -46 -30 -87 -55 -90
-55 -7 0 -6 35 2 70 4 14 12 51 19 83 11 52 16 60 48 75 73 34 197 106 219
126 32 29 55 83 85 201 25 98 67 400 67 480 0 48 -23 85 -52 85 -37 0 -129 32
-135 47 -7 18 26 204 39 218 5 6 29 -11 63 -46 94 -99 134 -86 175 55 24 83
65 271 80 366 4 30 16 93 25 140 9 47 18 110 22 141 l6 56 -38 19 c-48 24
-106 117 -140 226 -14 43 -29 85 -35 95 -5 10 -21 44 -34 76 -25 58 -50 73
-74 45z m539 -1320 c16 -30 6 -163 -20 -263 -21 -80 -58 -146 -96 -171 -19
-12 -21 -11 -23 9 -3 30 50 394 63 435 7 21 63 14 76 -10z m-494 -1450 c-3 -8
-6 -5 -6 6 -1 11 2 17 5 13 3 -3 4 -12 1 -19z"/>
<path d="M2526 4182 c-17 -27 -27 -188 -30 -452 -4 -259 -8 -325 -35 -535 -17
-132 -37 -269 -44 -305 l-14 -65 -6 40 c-4 22 -7 139 -8 260 -1 344 -10 461
-37 515 -28 54 -130 161 -191 201 -54 35 -86 37 -102 7 -15 -28 -8 -184 20
-413 11 -93 25 -260 31 -370 13 -252 26 -395 51 -593 11 -86 21 -170 23 -187
1 -16 5 -43 9 -60 13 -57 34 -326 42 -540 7 -178 16 -235 39 -254 21 -17 47
15 81 97 15 37 31 76 35 87 5 11 13 40 19 65 5 25 26 113 45 195 20 83 49 215
66 294 16 78 36 171 44 205 8 33 17 70 19 81 2 11 5 -20 5 -70 2 -88 -2 -148
-33 -520 -30 -358 -34 -445 -24 -543 22 -214 78 -366 126 -336 22 14 43 81 43
140 0 28 4 73 9 100 5 27 12 175 16 329 3 154 8 363 11 465 9 311 6 827 -6
970 -13 166 -46 470 -66 605 -21 151 -85 497 -102 559 -8 31 -26 44 -36 28z"/>
<path d="M3054 4128 c-73 -69 -100 -70 -180 -5 -31 26 -64 46 -73 45 -26 -5
-25 -125 3 -366 78 -669 90 -974 81 -2033 -5 -593 -4 -859 4 -863 16 -10 24
13 91 239 33 116 68 228 75 250 8 22 22 60 30 85 17 47 83 182 152 310 73 135
92 206 104 407 13 202 6 910 -11 1118 -26 321 -63 543 -125 740 -19 62 -60
125 -81 125 -8 0 -40 -23 -70 -52z m78 -925 c35 -40 43 -127 43 -483 0 -237
-4 -368 -13 -420 -16 -91 -53 -200 -79 -234 -20 -24 -20 -23 -26 552 -6 534
-6 578 10 590 23 17 47 15 65 -5z"/>
<path d="M8762 3813 c-5 -10 -12 -30 -16 -45 -10 -44 -37 -287 -42 -378 -5
-98 -71 -786 -84 -875 -4 -33 -11 -91 -15 -130 -3 -38 -24 -216 -46 -395 -45
-373 -57 -534 -41 -544 11 -6 26 11 156 170 41 51 128 148 194 217 145 151
157 176 157 322 l0 100 -26 -2 c-26 -1 -72 -32 -169 -113 -25 -20 -55 -42 -67
-49 -22 -11 -23 -10 -23 22 0 61 12 98 34 107 12 4 52 31 90 59 70 52 107 95
121 141 4 14 11 30 15 35 10 14 33 223 29 265 -4 35 -4 35 -49 31 -25 -2 -67
-4 -95 -5 l-50 -1 3 50 c5 63 15 77 48 64 45 -16 109 -11 144 14 41 28 65 90
79 205 13 107 14 289 2 296 -5 4 -22 -1 -39 -11 -28 -16 -30 -16 -64 5 -19 12
-41 34 -48 49 -8 15 -22 38 -32 51 -9 13 -24 47 -33 75 -9 29 -23 66 -31 84
-8 17 -14 35 -14 39 0 20 -52 143 -65 154 -10 9 -16 7 -23 -7z"/>
<path d="M1804 3365 c-106 -110 -162 -253 -185 -470 -20 -189 1 -338 101 -727
18 -71 20 -91 10 -103 -23 -27 -54 -16 -114 42 -154 148 -209 434 -156 810 13
89 20 169 16 178 -8 22 -29 15 -136 -44 -48 -26 -110 -72 -146 -106 -60 -59
-61 -61 -72 -135 -13 -89 -6 -129 37 -230 53 -124 110 -222 192 -331 78 -102
154 -169 268 -236 53 -30 143 -86 201 -123 156 -100 228 -128 258 -98 20 20
14 166 -12 310 -69 375 -81 497 -94 938 l-7 265 -30 60 c-17 35 -38 61 -48 63
-12 2 -41 -20 -83 -63z"/>
<path d="M9206 3372 c-9 -15 -15 -103 -26 -367 -13 -303 -34 -500 -99 -920
-35 -224 -41 -270 -41 -309 0 -83 24 -71 137 69 132 163 271 300 354 350 83
50 194 133 222 166 47 54 60 108 55 221 -3 79 -9 104 -36 162 -42 90 -110 173
-220 270 -96 84 -217 217 -279 305 -39 55 -57 69 -67 53z m257 -558 c41 -21
85 -62 102 -95 37 -70 22 -213 -27 -266 -55 -59 -141 -97 -152 -66 -3 7 -1 67
4 131 5 64 10 158 10 208 0 113 3 118 63 88z"/>
</g>
</svg>
